<svg xmlns="http://www.w3.org/2000/svg" viewBox="0 0 690.02 222.03"><defs><style>.cls-1{fill:#9ab4ff;}.cls-2{fill:#607ec9;}</style></defs><g id="Capa_2" data-name="Capa 2"><g id="Capa_2-2" data-name="Capa 2"><circle class="cls-1" cx="637.59" cy="52.49" r="14.01"/><path class="cls-2" d="M690,146.1c-9.41-4.47-17.66-11.33-25-18.8-3.65-3.77-7.11-7.73-10.48-11.71s-6.69-8-10-12C637.93,95.5,631.6,87.24,625.3,79L616,66.6q-4.63-6-9.65-11.68c-6.66-7.59-13.76-14.85-21.14-21.77a48.49,48.49,0,0,0-10.72-7.78,26.82,26.82,0,0,0-11.28-3.05c-7.34-.26-14,3.46-21,10A150.62,150.62,0,0,0,522.83,53.9c-6,7.89-11.62,16.42-17.41,25S494,96.06,488,104.75s-12.24,17.36-19.17,25.71-14.41,16.82-24.46,24c-.65.46-1.28.93-1.95,1.37l-2.08,1.29a48.72,48.72,0,0,1-4.4,2.42c-1.48.79-3.19,1.4-4.79,2.08-.85.29-1.72.55-2.58.82a24.32,24.32,0,0,1-2.64.71l-2.73.56c-.92.15-1.87.23-2.81.34a43.12,43.12,0,0,1-5.69.18,43.83,43.83,0,0,1-11-2,23.9,23.9,0,0,1-2.55-.9l-2.47-1c-1.53-.77-3.17-1.48-4.57-2.34s-2.9-1.68-4.2-2.6c-.66-.46-1.35-.91-2-1.38L386,152.61c-1.31-1-2.34-1.88-3.45-2.8s-2.17-1.87-3.23-2.82q-3.19-2.85-6.16-5.86a229.45,229.45,0,0,1-21.2-25.2c-3.18-4.28-6.25-8.57-9.27-12.79l-9-12.75c-5.94-8.5-11.78-16.89-17.79-25q-4.5-6.07-9.16-11.92c-1.56-1.93-3.13-3.85-4.72-5.74s-3-3.41-4.54-5.06a90.71,90.71,0,0,0-10.11-9c-.91-.7-1.82-1.38-2.76-2.06l-1.41-1-.71-.49-.35-.24-.29-.18a24.94,24.94,0,0,0-4.42-2.37,14.29,14.29,0,0,0-8.09-.92,17.91,17.91,0,0,0-4.4,1.39c-.77.3-1.56.76-2.36,1.17l-1.21.7c-.41.25-.9.59-1.35.88A97.4,97.4,0,0,0,239.71,49c-1.58,1.82-3.12,3.7-4.65,5.62s-3,3.88-4.61,6L221.16,73,202.55,97.74l-9.37,12.35-4.68,6.17c-1.57,2.07-3.27,4.31-5,6.42a156.19,156.19,0,0,1-23.2,23.66,75.9,75.9,0,0,1-14.94,9.77,40.1,40.1,0,0,1-19.45,4.12,17.2,17.2,0,0,1-2.57-.25l-2.54-.38c-1.62-.43-3.3-.79-4.84-1.36a44.64,44.64,0,0,1-8.6-4.11,74.31,74.31,0,0,1-13.57-10.88A202.24,202.24,0,0,1,73,118.68c-12.44-17.23-22.8-35.14-34-52.5C33.48,57.49,27.71,49,21.53,40.71a124.48,124.48,0,0,0-9.69-11.95A62.43,62.43,0,0,0,0,18.91C9.61,23,17.57,30.53,24.67,38.07S38.6,53.66,45.14,61.78,58,78.21,64.28,86.41s12.55,16.34,19.19,24a194.24,194.24,0,0,0,21,21.3,62.34,62.34,0,0,0,11.17,7.8c3.77,1.91,7.43,3,10.85,2.89a22.78,22.78,0,0,0,10.42-3.11,57.66,57.66,0,0,0,10.54-7.88,146.25,146.25,0,0,0,19.11-21.72l35.31-51,8.91-12.81c1.45-2.11,3-4.3,4.68-6.48s3.33-4.34,5.09-6.49a123,123,0,0,1,25-23.76c.63-.43,1.2-.84,1.88-1.28l2.11-1.31a50,50,0,0,1,4.54-2.41A42.86,42.86,0,0,1,264.44.76a40.64,40.64,0,0,1,22.43,2,49.84,49.84,0,0,1,9.37,4.74l.54.33.45.3.9.6,1.78,1.21c1.18.83,2.35,1.67,3.52,2.54A119.2,119.2,0,0,1,316.65,23.9c2.05,2.05,4.08,4.31,5.89,6.45s3.48,4.14,5.18,6.23q5.07,6.29,9.84,12.67c6.37,8.51,12.42,17.09,18.37,25.56l8.87,12.65c3,4.23,5.93,8.38,8.9,12.42a215.09,215.09,0,0,0,18.6,22.48q2.46,2.56,5,4.93c.85.79,1.7,1.59,2.59,2.33s1.77,1.56,2.54,2.14a30.82,30.82,0,0,0,9.32,5.46,17.53,17.53,0,0,0,4.21.89,20.31,20.31,0,0,0,2.06-.05c.35,0,.7,0,1-.09s.72-.15,1.08-.21a27.58,27.58,0,0,0,9.53-4.38l1.26-.83,1.32-1c.87-.67,1.74-1.36,2.6-2.08q2.56-2.15,5.07-4.56c3.34-3.23,6.63-6.81,9.89-10.57,6.47-7.45,12.68-15.33,18.75-23.51s12-16.62,18.27-25,12.39-16.8,19.3-25.14a161.93,161.93,0,0,1,23.35-23.41l3.34-2.58c1.21-.89,2.44-1.76,3.72-2.6a54.3,54.3,0,0,1,8.35-4.45,39.71,39.71,0,0,1,19.62-3,44.11,44.11,0,0,1,18.13,6.17,61.62,61.62,0,0,1,13.64,11.35,311.3,311.3,0,0,1,20.36,24.47q4.74,6.42,9.08,13.12l2.13,3.37,2,3.29L634,73q8.18,13.19,16.58,26.19c5.65,8.65,11.29,17.34,17.5,25.46A93.59,93.59,0,0,0,690,146.1Z"/><path class="cls-2" d="M244.47,210.82,241.66,186h4.69l1.87,21.09h.42L251.57,186h4.55L254,191.09h-.32l-2.91,19.73Zm12.42,0L254,191.09h-.38l-2-5.11h4.55l2.93,21.09h.42L261.58,186h4.92L263,210.82Z"/><path class="cls-2" d="M282.21,211.29a9.94,9.94,0,0,1-8-3.37q-2.87-3.37-2.86-9.52t2.86-9.52a11.23,11.23,0,0,1,16,0q2.85,3.36,2.85,9.52t-2.85,9.52A9.9,9.9,0,0,1,282.21,211.29Zm0-4.45a4.82,4.82,0,0,0,4.23-2.2,13.81,13.81,0,0,0,0-12.48,5.18,5.18,0,0,0-8.46,0,13.81,13.81,0,0,0,0,12.48A4.8,4.8,0,0,0,282.21,206.84Z"/><path class="cls-2" d="M298.14,210.82v-4.35h16.6v4.35Zm.94-20.48V186h8.3l.47,4.36Zm4.6,20.48V186h4l.93,7.13v17.71Zm5-10.68-1.45-7.78h1.92q.42-6.86,6.85-6.85,3.84,0,5.57,2.21c1.16,1.46,1.74,3.84,1.74,7.12h-4.92a7.17,7.17,0,0,0-.81-3.91,2.92,2.92,0,0,0-2.61-1.2,5.11,5.11,0,0,0-4.73,2.71Q308.64,195.14,308.64,200.14Z"/><path class="cls-2" d="M328.14,210.82V175.67h5v35.15Zm3.52-9.42V197h2.81a10.76,10.76,0,0,0,5.09-1.07,7.3,7.3,0,0,0,3.13-3.48,22.64,22.64,0,0,0,1.67-6.42h5.16q-1,7.76-4.42,11.59t-9.46,3.83ZM345,210.82l-7.08-12.09,4.69-1.92,8.53,14Z"/><path class="cls-2" d="M384.39,210.82v-4.35h9.94v4.35Zm1.41-20.48V186h13v4.36Zm10.38-8.3a3.47,3.47,0,1,1,2.46-1A3.35,3.35,0,0,1,396.18,182Zm-2.32,28.78V187.39h5v23.43Zm4.5,0v-4.35h8.11v4.35Z"/><path class="cls-2" d="M412.71,210.82V186h4.5l.47,5.25v19.59Zm15.28,0V194.65a4.82,4.82,0,0,0-1.17-3.47,4.37,4.37,0,0,0-3.29-1.21q-5.85,0-5.85,6.89l-1.46-6.38h1.92a5,5,0,0,1,1.83-3.74,9.27,9.27,0,0,1,10.83,1.16,9.74,9.74,0,0,1,2.16,6.75v16.17Z"/><path class="cls-2" d="M469,221.61V186h4.5l.47,5.25v30.38Zm12-10.32a7.46,7.46,0,0,1-4.61-1.31,5,5,0,0,1-2-3.66h-2.15l1.69-7.07a9.52,9.52,0,0,0,1.51,5.83,5.21,5.21,0,0,0,4.44,2,5.28,5.28,0,0,0,4.55-2.13q1.54-2.13,1.54-6.3,0-4.41-1.54-6.66a5.83,5.83,0,0,0-9-.26,9.55,9.55,0,0,0-1.51,5.84l-1.69-7.08h1.92a5.27,5.27,0,0,1,2.12-3.66,7.81,7.81,0,0,1,4.7-1.31c3.27,0,5.73,1.11,7.41,3.33s2.5,5.48,2.5,9.8q0,6.23-2.5,9.44C486.71,210.22,484.25,211.29,481,211.29Z"/><path class="cls-2" d="M495,210.82v-4.35h16.59v4.35Zm.94-20.48V186h8.29l.47,4.36Zm4.59,20.48V186h4l.94,7.13v17.71Zm5-10.68-1.45-7.78H506q.42-6.86,6.84-6.85,3.84,0,5.58,2.21c1.16,1.46,1.73,3.84,1.73,7.12h-4.92a7.17,7.17,0,0,0-.81-3.91,2.92,2.92,0,0,0-2.61-1.2,5.09,5.09,0,0,0-4.72,2.71Q505.52,195.14,505.52,200.14Z"/><path class="cls-2" d="M535.33,211.29a9.91,9.91,0,0,1-8-3.37q-2.87-3.37-2.86-9.52t2.86-9.52a11.23,11.23,0,0,1,16,0q2.85,3.36,2.85,9.52t-2.85,9.52A9.93,9.93,0,0,1,535.33,211.29Zm0-4.45a4.8,4.8,0,0,0,4.23-2.2,13.81,13.81,0,0,0,0-12.48,5.18,5.18,0,0,0-8.46,0,13.81,13.81,0,0,0,0,12.48A4.8,4.8,0,0,0,535.33,206.84Z"/><path class="cls-2" d="M561.56,211.29q-4.87,0-7.4-3.21t-2.52-9.44q0-6.48,2.52-9.8a8.71,8.71,0,0,1,7.4-3.33,7.84,7.84,0,0,1,4.71,1.31,5.16,5.16,0,0,1,2.11,3.66h1.92l-1.69,7.08a9.55,9.55,0,0,0-1.51-5.84,5.23,5.23,0,0,0-4.44-2,5.17,5.17,0,0,0-4.55,2.25q-1.54,2.25-1.54,6.66,0,4.17,1.54,6.3a5.94,5.94,0,0,0,9,.14,9.52,9.52,0,0,0,1.51-5.83l1.69,7.07h-2.16a4.92,4.92,0,0,1-2,3.66A7.43,7.43,0,0,1,561.56,211.29ZM553.66,222l-.23-4.55,8-.23q3.78-.12,5.49-2.09a8.64,8.64,0,0,0,1.73-5.79V191.23l.47-5.25h4.5v22.64q0,6.63-3,9.8t-9.63,3.37Z"/><path class="cls-2" d="M579.39,210.82v-4.35H596v4.35Zm.94-20.48V186h8.3l.47,4.36Zm4.6,20.48V186h4l.93,7.13v17.71Zm5-10.68-1.45-7.78h1.92q.42-6.86,6.85-6.85,3.84,0,5.57,2.21c1.16,1.46,1.74,3.84,1.74,7.12H599.6a7.17,7.17,0,0,0-.81-3.91,2.92,2.92,0,0,0-2.61-1.2,5.11,5.11,0,0,0-4.73,2.71Q589.89,195.14,589.89,200.14Z"/><path class="cls-2" d="M621.86,211.29q-6.35,0-9.81-3.34t-3.45-9.59q0-6.11,2.93-9.47t8.27-3.38q5,0,7.79,3.05t2.76,8.86c0,1.14-.05,2.2-.14,3.19H612.77v-3.8h13.08a7.48,7.48,0,0,0-1.6-5.15,5.6,5.6,0,0,0-4.4-1.79,6,6,0,0,0-4.91,2.16,9.42,9.42,0,0,0-1.75,6.09c0,2.88.8,5.06,2.4,6.56s3.88,2.25,6.84,2.25a25.46,25.46,0,0,0,3-.17c1-.12,2-.28,3-.48l.61,4.36a33.34,33.34,0,0,1-4,.54C623.88,211.25,622.8,211.29,621.86,211.29Z"/><path class="cls-2" d="M645.91,211.29c-1.88,0-3.48,0-4.82-.16a26.5,26.5,0,0,1-3.66-.54l.56-4.5c1.64.25,3.09.44,4.35.56a34.51,34.51,0,0,0,3.57.19,14.77,14.77,0,0,0,5.47-.74,2.45,2.45,0,0,0,1.7-2.35,2.18,2.18,0,0,0-.6-1.68,4,4,0,0,0-1.84-.85l-5.71-1.46a14.46,14.46,0,0,1-5.41-2.32,5,5,0,0,1-1.72-4.19,6.32,6.32,0,0,1,3.13-5.91q3.14-1.83,10.09-1.83c1.2,0,2.32,0,3.36.11s2.11.19,3.2.36l-.51,4.31c-1.27-.12-2.39-.21-3.36-.25s-1.91-.07-2.83-.07a18.4,18.4,0,0,0-6,.71A2.45,2.45,0,0,0,643,193a1.68,1.68,0,0,0,.77,1.56,8.79,8.79,0,0,0,2.37.88l4.59,1.12a13.85,13.85,0,0,1,5.73,2.51,5.72,5.72,0,0,1,1.82,4.57,6.36,6.36,0,0,1-2.93,5.83Q652.37,211.3,645.91,211.29Z"/><path class="cls-2" d="M674,211.29c-1.87,0-3.48,0-4.81-.16a26.65,26.65,0,0,1-3.67-.54l.56-4.5c1.64.25,3.09.44,4.35.56a34.8,34.8,0,0,0,3.57.19,14.87,14.87,0,0,0,5.48-.74,2.46,2.46,0,0,0,1.7-2.35,2.18,2.18,0,0,0-.6-1.68,4.1,4.1,0,0,0-1.84-.85l-5.72-1.46a14.48,14.48,0,0,1-5.4-2.32,5,5,0,0,1-1.72-4.19,6.33,6.33,0,0,1,3.12-5.91q3.13-1.83,10.09-1.83c1.21,0,2.33,0,3.37.11s2.1.19,3.2.36l-.52,4.31c-1.26-.12-2.38-.21-3.35-.25S679.93,190,679,190a18.33,18.33,0,0,0-6,.71,2.46,2.46,0,0,0-1.88,2.33,1.7,1.7,0,0,0,.77,1.56,8.93,8.93,0,0,0,2.37.88l4.6,1.12a13.85,13.85,0,0,1,5.73,2.51,5.72,5.72,0,0,1,1.81,4.57,6.34,6.34,0,0,1-2.93,5.83Q680.51,211.3,674,211.29Z"/></g></g></svg>